<?xml version="1.0" standalone="no"?>
<!DOCTYPE svg PUBLIC "-//W3C//DTD SVG 20010904//EN"
 "http://www.w3.org/TR/2001/REC-SVG-20010904/DTD/svg10.dtd">
<svg version="1.0" xmlns="http://www.w3.org/2000/svg"
 width="512.000000pt" height="512.000000pt" viewBox="0 0 512.000000 512.000000"
 preserveAspectRatio="xMidYMid meet">
<metadata>
Created by potrace 1.14, written by Peter Selinger 2001-2017
</metadata>
<g transform="translate(0.000000,512.000000) scale(0.100000,-0.100000)"
fill="#000000" stroke="none">
<path d="M915 5113 c-231 -29 -421 -117 -581 -266 -178 -166 -284 -363 -319
-597 -22 -142 -22 -3238 0 -3380 57 -374 310 -678 672 -809 162 -59 75 -56
1873 -56 1798 0 1711 -3 1873 56 304 109 529 338 633 641 55 160 54 131 54
1858 0 1726 1 1698 -54 1857 -99 288 -319 523 -591 628 -192 75 -43 69 -1880
71 -907 1 -1663 -1 -1680 -3z m1810 -1103 c214 -21 398 -81 527 -173 214 -152
333 -373 354 -650 12 -175 -32 -393 -107 -523 -120 -211 -339 -347 -642 -400
-72 -13 -189 -18 -524 -21 l-433 -5 -2 -567 -3 -566 -190 0 -190 0 -3 1445
c-1 795 0 1451 3 1458 6 15 1044 17 1210 2z"/>
<path d="M1900 3130 l0 -571 428 4 c360 3 437 6 491 21 107 28 190 73 257 140
107 108 150 238 141 431 -10 218 -101 370 -278 465 -133 70 -156 73 -621 78
l-418 3 0 -571z"/>
</g>
</svg>
